<?xml version="1.0" encoding="utf-8"?>
<!-- Generator: Adobe Illustrator 22.0.0, SVG Export Plug-In . SVG Version: 6.00 Build 0)  -->
<svg version="1.1" xmlns="http://www.w3.org/2000/svg" xmlns:xlink="http://www.w3.org/1999/xlink" x="0px" y="0px"
	 viewBox="0 0 800 400" style="enable-background:new 0 0 800 400;" xml:space="preserve">
<style type="text/css">
	.st0{display:none;}
	.st1{display:inline;}
	.st2{fill:#D1202C;}
	.st3{fill:#FFFFFF;}
	.st4{display:inline;fill:#FFFFFF;stroke:#FFFFFF;stroke-width:3;stroke-miterlimit:10;}
	.st5{display:inline;fill:none;stroke:#FFFFFF;stroke-width:10;stroke-linecap:round;stroke-linejoin:round;stroke-miterlimit:10;}
	.st6{fill:#CF202A;}
	.st7{display:inline;fill:#FFFFFF;}
	.st8{stroke:#000000;stroke-miterlimit:10;}
	.st9{fill:none;stroke:#000000;stroke-width:10;stroke-linecap:round;stroke-linejoin:round;stroke-miterlimit:10;}
</style>
<g id="fondo_negro" class="st0">
	<rect class="st1" width="800" height="400"/>
</g>
<g id="logo-blanco" class="st0">
	<g class="st1">
		<path class="st2" d="M97.1,275.2c-0.3-3.8-0.3-7.6-0.4-11.4c0-3.8,0.1-7.5,0.2-11.3c0.3-7.5,0.8-15,1.4-22.4
			c1.4-14.9,3.4-29.6,6-44.3c2.6-14.7,5.9-29.2,9.9-43.7c2-7.2,4.2-14.4,6.8-21.5c1.3-3.5,2.6-7.1,4.2-10.6c0.8-1.7,1.6-3.5,2.4-5.2
			c0.4-0.9,0.9-1.7,1.4-2.5c0.5-0.8,1-1.7,1.8-2.3c-0.3,0.4-0.3,0.9-0.4,1.3c-0.1,0.5-0.2,0.9-0.2,1.4c-0.1,0.9-0.2,1.9-0.3,2.8
			c-0.2,1.9-0.3,3.7-0.4,5.6l-0.8,11.2c-0.6,7.4-1.3,14.8-2.1,22.2c-1.7,14.8-3.8,29.5-6.5,44.1c-2.6,14.6-5.7,29.1-9.4,43.6
			c-1.9,7.2-3.8,14.4-6.1,21.6C102.4,261,100.1,268.2,97.1,275.2z"/>
	</g>
	<g id="R_fuera" class="st1">
		<path class="st2" d="M58.9,131.3c3.3-2.7,6.8-5.1,10.3-7.5c3.5-2.4,7.1-4.8,10.6-7.1c7.2-4.6,14.4-9.2,21.8-13.5
			c3.7-2.2,7.4-4.3,11.2-6.4c3.8-2,7.6-4.1,11.8-5.7c7.8-3.3,15.8-6.6,24-9.4c4.1-1.4,8.4-2.6,12.7-3.7c2.2-0.5,4.3-1,6.6-1.4
			l1.6-0.3l1.7-0.3c1.1-0.2,2.2-0.3,3.4-0.4c4.5-0.5,9.1-0.7,13.6-0.5c4.6,0.2,9.2,0.7,13.7,1.6c9.1,1.8,18,5.1,26.1,10.4
			c8.1,5.2,15.1,12.4,19.9,21c2.5,4.4,4.3,9.2,5.4,14.1c1.1,5,1.4,10.1,0.8,15.2c-1,10.2-5.4,20-12.1,27.5c-1.7,1.9-3.4,3.7-5.3,5.3
			c-1,0.9-1.8,1.5-2.8,2.3c-1,0.7-1.9,1.4-2.9,2.1c-4,2.7-8.2,5-12.5,6.9c-8.6,3.8-17.6,6-26.5,7.3c-8.9,1.3-17.7,1.8-26.5,1.8
			c-8.7,0.1-17.4-0.3-25.9-0.8c-8.6-0.6-17.1-1.3-25.5-2l-12.7-1.1l-1.5-0.1l-1.5-0.1l-3.2-0.2c-2.3-0.2-4.8-0.4-7.5-1.3l0,0
			c-2.4-0.6-3.8-3-3.2-5.4c0.6-2.2,2.7-3.6,4.9-3.3l0.3,0c7.5,1,15,2.1,22.5,3.3l2.8,0.5l2.8,0.5c1.5,0.2,3.3,0.4,5,0.5
			c3.6,0.2,7.3,0.2,11.1,0.2c3.8,0,7.6,0.1,11.5,0.3c3.9,0.2,7.9,0.6,11.9,1.4c4,0.8,8.2,1.9,12.2,3.9c2,1,4,2.3,5.9,3.9
			c1.8,1.6,3.5,3.5,4.8,5.7l-0.4-0.6c2,2.5,4.1,5.2,6.1,8.2c2,3,3.6,6.2,5,9.3c2.8,6.3,4.8,12.6,6.7,18.9l1.4,4.6
			c0.5,1.5,1,2.9,1.5,4.3c1.1,2.9,2.3,5.7,3.6,8.3c1.4,2.7,2.9,5.2,4.6,7.6c1.7,2.3,3.6,4.4,5.6,5.8c0.9,0.7,1.9,1.1,2.3,1.1l4.3,0
			l9.7,0.1l19.4,0.2l38.8,0.4l155.1,1.4l310.2,2.9l-310.2,2.8l-155.1,1.4l-38.8,0.3l-19.4,0.2l-9.7,0.1l-2.4,0l-1.2,0l-0.6,0l-0.2,0
			c0.2,0-0.5,0-0.5,0c-0.2,0-0.4,0-0.6-0.1c-2.9-0.4-4.8-1.5-6.6-2.6c-3.4-2.3-5.9-5-8.1-7.9c-2.2-2.8-4-5.8-5.7-8.8
			c-1.7-3-3.1-6.2-4.4-9.3c-0.6-1.6-1.2-3.2-1.8-4.8c-0.6-1.7-1.1-3.2-1.6-4.7c-2-6-4.1-12-6.6-17.5c-1.2-2.8-2.6-5.3-4.2-7.7
			c-1.6-2.4-3.5-4.8-5.5-7.3l0,0c-0.1-0.2-0.3-0.4-0.4-0.6c-1.3-2.2-3.3-4-6-5.4c-2.7-1.4-5.9-2.4-9.2-3c-6.8-1.4-14.1-1.6-21.6-1.9
			c-3.8-0.2-7.6-0.3-11.6-0.6c-2-0.2-4-0.4-6.2-0.8l-2.8-0.6l-2.7-0.5l-22.2-4.3l2-8.7l0,0c1.4,0.3,3.1,0.3,5.1,0.2l3.2-0.2l1.7-0.1
			l1.6,0c4.3-0.1,8.6-0.1,12.8-0.1c8.5,0,17,0.2,25.4,0.1c8.4,0,16.8-0.1,25.1-0.6c8.3-0.4,16.4-1.2,24.3-2.6
			c7.9-1.4,15.5-3.5,22.4-6.6c3.5-1.6,6.7-3.4,9.7-5.5c0.8-0.5,1.5-1.1,2.2-1.6c0.6-0.5,1.5-1.2,2.1-1.7c1.3-1.2,2.6-2.4,3.7-3.7
			c4.5-5.2,7.5-11.7,8.2-18.4c0.4-3.4,0.3-6.8-0.4-10.2c-0.6-3.3-1.9-6.7-3.5-9.7c-3.4-6.4-8.3-11.8-14.4-16.1
			c-6.1-4.3-13.2-7.4-20.7-9.4c-3.8-1-7.6-1.7-11.5-2.1c-3.9-0.4-7.8-0.6-11.9-0.5c-1,0-2,0.1-3,0.1L171,88l-1.6,0.1
			c-1.9,0.2-4,0.4-6,0.7c-4,0.6-8.1,1.3-12.1,2.3c-8.1,1.8-16.2,4.2-24.5,6.4c-3.7,1.1-7.6,2.9-11.5,4.6c-3.8,1.7-7.7,3.5-11.5,5.4
			c-7.6,3.7-15.2,7.5-22.7,11.5C73.7,122.9,66.2,126.8,58.9,131.3z"/>
	</g>
	<g class="st1">
		<path id="o_1_" class="st3" d="M258.4,218.4c-1.6,9.3-4.8,16.9-9.6,23c-4.8,6.1-11.1,9.1-18.9,9.1c-6.5,0-11.3-2.7-14.2-8
			c-2.9-5.4-3.6-12.5-2-21.6c1.7-9.7,5.1-15.9,10.2-21.6c5.1-5.7,11-8.4,17.8-8.4c6.1,0,10.9,2.5,14.2,7.4
			C259.3,203.2,260.1,208.8,258.4,218.4z M250,218.7c0.9-5.4,1-8.1,0.2-11.5c-1.3-5.3-4.7-7.9-10.2-7.9c-4.9,0-8.8,2.3-11.8,6.8
			c-3,4.5-5.1,8.3-6.2,14.7c-1.1,6.1-0.9,11.2,0.6,15.3c1.5,4.1,4.7,6.1,9.5,6.1c5.3,0,9.4-2.4,12.2-7.3
			C247.1,230,249,224.6,250,218.7z"/>
		<path class="st3" d="M229.8,252c-7.1,0-12.3-3-15.5-8.8c-3.1-5.6-3.8-13.2-2.2-22.5c1.6-9.2,4.8-15.9,10.5-22.4
			c5.2-5.9,11.6-8.9,19-8.9c6.6,0,11.8,2.7,15.5,8.1c3.7,5.4,4.5,11.5,2.7,21.3c-1.7,9.5-5,17.4-9.9,23.7
			C244.9,248.8,238.1,252,229.8,252z M241.7,192.4c-6.6,0-12,2.6-16.7,7.9c-5.4,6.1-8.3,12.3-9.8,20.9c-1.5,8.6-0.9,15.6,1.8,20.6
			c2.6,4.9,6.8,7.2,12.8,7.2c7.4,0,13.2-2.8,17.8-8.5c4.6-5.8,7.8-13.3,9.3-22.3c1.6-9,0.9-14.3-2.3-19.1
			C251.6,194.6,247.3,192.4,241.7,192.4z M232,243.7c-5.4,0-9.2-2.5-10.9-7.1c-1.6-4.3-1.8-9.7-0.7-16.1c1.1-6.4,3.1-10.3,6.4-15.2
			c3.3-5,7.7-7.5,13.1-7.5c6.2,0,10.2,3.1,11.7,9.1c0.9,3.5,0.8,6.5-0.2,12.1c-1.1,6.1-3.1,11.7-6,16.7
			C242.4,241,237.9,243.7,232,243.7z M239.9,200.8c-4.4,0-7.8,2-10.6,6.1c-3.1,4.7-4.9,8.2-6,14.1c-1,5.8-0.8,10.7,0.6,14.5
			c1.3,3.5,3.8,5.1,8.1,5.1c4.8,0,8.3-2.1,10.9-6.5c2.7-4.7,4.6-10,5.6-15.7c0.9-5.2,1-7.8,0.2-10.9
			C247.6,202.9,244.8,200.8,239.9,200.8z"/>
	</g>
	<g class="st1">
		<path id="L_1_1_" class="st3" d="M275.3,171.6h9.7l-16.8,78.9h-9.7L275.3,171.6z"/>
		<path class="st3" d="M269.5,252h-12.7l17.4-81.9h12.7L269.5,252z M260.4,249h6.6l16.1-75.9h-6.6L260.4,249z"/>
	</g>
	<g class="st1">
		<path id="L2_1_" class="st3" d="M293.1,171.6h9.7L286,250.5h-9.7L293.1,171.6z"/>
		<path class="st3" d="M287.2,252h-12.7l17.4-81.9h12.7L287.2,252z M278.2,249h6.6l16.1-75.9h-6.6L278.2,249z"/>
	</g>
	<path id="e" class="st4" d="M335.2,242.2c-6.2,6-15.5,8.3-18.1,8.3h-0.4c-6.1,0-10.7-1.8-13.8-5.3c-3-3.5-4.6-8.4-4.6-14.7
		c0-2.5,0.2-5.2,0.6-7.9c0.4-2.8,1.1-5.6,2.1-8.5c1-2.9,2.3-5.8,4-8.6c1.7-2.9,3.9-5.7,6.5-8.4c2-2,4-3.5,6.2-4.5
		c2.2-1.1,4.2-1.6,6.2-1.6c0.3,0,0.7,0.1,1.1,0.2c0.5,0.1,0.9,0.3,1.4,0.6c0.5,0.2,0.9,0.5,1.4,0.9c0.4,0.3,0.8,0.7,1.2,1.1
		c1,1.3,1.7,2.5,2.2,3.7c0.5,1.2,0.7,2.6,0.7,4.1c0,2.1-0.3,4-0.9,5.7c-0.6,1.7-1.4,3.4-2.5,5c-1.1,1.6-2.4,3.2-4,4.9
		c-1.6,1.6-3.4,3.4-5.4,5.3c-0.7,0.6-1.5,1.4-2.4,2.1c-0.9,0.8-1.9,1.6-3,2.5c-1.1,0.9-2.2,1.8-3.3,2.7c-1.1,0.9-2.3,1.8-3.4,2.7
		c0.3,6.4,3.8,9.6,10.7,9.6c3.8,0,13.1-6.7,14.3-7.6C333.4,233.4,344.2,232.2,335.2,242.2z M323.8,203.7c0-1.1-0.3-2-0.9-2.8
		c-0.6-0.8-1.3-1.2-2.1-1.2c-0.6,0-1.4,0.3-2.3,0.8c-0.9,0.5-2,1.4-3,2.7c-2.2,2.7-4,5.8-5.6,9.6c-1.5,3.7-2.6,7.9-3.2,12.5
		c2.3-1.8,4.2-3.5,5.7-4.9c1.6-1.4,3-2.8,4.2-4c0.9-0.9,1.7-1.8,2.6-2.7c0.8-1,1.6-2,2.3-3.1c0.7-1.1,1.3-2.2,1.7-3.3
		C323.6,206,323.8,204.9,323.8,203.7z"/>
	<path id="r_minus" class="st5" d="M335.8,235.6c6.4-8.5,15.8-27,9.5-40.8c0,0,13.8,5.7,35.9-0.5c-7.5,8.5-21.2,23.8-22.1,30.9
		c-0.8,3.9-1.3,8.2-0.2,12.1c1.2,4.2,5.2,10.1,10,10.1c1.9,0,5.6-0.2,7.3-1"/>
	<g id="P" class="st1">
		<g>
			<path class="st6" d="M398.7,289.1c-0.1-6.1,0.1-12.2,0.2-18.3l0.3-9.1c0.1-3,0.4-6,0.7-9c0.7-6,0.7-12.1,1.3-18.1
				c0.3-3,0.9-5.9,1.7-8.8l0.6-2.2l0.7-2.2c0.3-0.7,0.9-1.3,2.1-1.9c1.3-0.5,2.9-1,5.8-1.2l1.6,0.3c2.6,1.3,3.9,2.3,4.9,3.2
				c0.9,0.9,1.3,1.8,1.3,2.5l-0.1,2.3l-0.2,2.3c-0.3,3-0.9,5.9-1.7,8.8c-1.6,5.8-3.9,11.5-5.5,17.3c-0.8,2.9-1.7,5.8-2.7,8.6
				l-3.1,8.6c-2.1,5.7-4.1,11.4-6.5,17.1L398.7,289.1z"/>
		</g>
		<g>
			<path class="st6" d="M384.3,227.7c1.8-2.8,3.7-5.4,5.8-8c2.1-2.5,4.3-5,6.5-7.4c4.6-4.7,9.5-9.1,15-13c5.5-3.9,11.4-7.5,18.6-9.8
				c3.6-1.1,7.6-2,12.2-1.6c2.3,0.2,4.7,0.7,7.1,1.8c2.4,1,4.6,2.6,6.4,4.5l0.3,0.3l0.2,0.2c1.2,1.6,2.4,3.3,3.4,5.5
				c0.9,2.1,1.6,4.6,1.7,7.2c0.1,2.6-0.4,5.2-1.3,7.3c-0.9,2.2-2,4.1-3.3,5.6c-2.5,3.2-5.3,5.4-8.1,7.3c-2.8,1.9-5.6,3.4-8.5,4.7
				c-2.9,1.3-5.7,2.4-8.6,3.4c-2.9,1-5.8,1.8-8.7,2.6c-5.9,1.5-11.7,2.5-17.7,3.4c2.3-2.1,4.7-3.9,7.2-5.6c2.5-1.7,4.9-3.4,7.4-5
				c4.9-3.2,9.8-6.4,14.2-9.6c2.2-1.6,4.3-3.3,6.2-5c1.9-1.7,3.5-3.5,4.5-5c0.5-0.8,0.8-1.5,1-2c0.1-0.6,0.2-0.9,0.1-1.3
				c0-0.3-0.2-0.7-0.4-1.3c-0.3-0.6-0.7-1.2-1.3-2l0.5,0.5c-0.4-0.5-0.9-0.8-1.4-1c-0.5-0.3-1.2-0.5-2.1-0.6c-1.8-0.2-4.2,0-6.7,0.5
				c-5.1,1.1-10.7,3.4-16.2,6c-5.5,2.6-11,5.5-16.6,8.5C395.8,221.6,390.2,224.7,384.3,227.7z"/>
		</g>
	</g>
	<path id="i_1_" class="st7" d="M472.1,192.1h9.8l-12.1,58.4H460L472.1,192.1z M476,173.1h9.8l-1.6,8.1h-9.8L476,173.1z"/>
	<path class="st7" d="M471.1,252h-12.9l12.8-61.4h12.9L471.1,252z M461.8,249h6.8l11.5-55.4h-6.8L461.8,249z M485.5,182.7h-12.9
		l2.2-11.1h12.9L485.5,182.7z M476.2,179.7h6.8l1-5.1h-6.8L476.2,179.7z"/>
	<g class="st1">
		<path class="st3" d="M485.2,198.6c4.4-2.2,9.3-3.7,14.2-4.6c5-1,10-1.4,15-1.5c5-0.2,10,0,14.9,0c2.4,0,4.8,0,7.1-0.2
			c2.3-0.1,4.5-0.4,6.4-0.9l-1.8,0.5l0,0c0.3-0.2,0.6-0.3,1.2-0.5c0.3-0.1,0.7-0.2,1.3-0.3c0.1,0,0.3,0,0.5,0c0.2,0,0.4,0,0.6,0
			c0.3,0,0.6,0.1,0.9,0.1l0.2,0l0.3,0.1c0.2,0.1,0.5,0.2,0.7,0.2c0.2,0.1,0.4,0.2,0.7,0.3c0.3,0.2,0.5,0.3,0.8,0.5
			c0.5,0.4,0.9,0.9,1.3,1.4c0.2,0.3,0.3,0.6,0.4,0.8c0.1,0.2,0.2,0.5,0.3,0.7c0.1,0.2,0.1,0.5,0.2,0.7c0,0.2,0.1,0.3,0.1,0.5
			c0.1,1.5-0.1,1.9-0.2,2.5c-0.2,0.9-0.4,1.3-0.6,1.6c-0.3,0.7-0.6,1.1-0.9,1.5c-0.3,0.4-0.5,0.8-0.8,1.1c-1,1.3-1.9,2.5-2.8,3.6
			c-1.9,2.2-3.8,4.4-5.7,6.5c-3.8,4.2-7.7,8.3-11.6,12.3c-3.9,4-7.9,8-12,11.9c-2,2-4.1,3.9-6.2,5.8c-2.1,1.9-4.2,3.8-6.7,5.7
			l-2.3-11.2l0,0c0.3,0.1,0.9,0.3,1.4,0.4l1.5,0.4c1,0.3,2.1,0.5,3.1,0.8c2.1,0.5,4.3,0.9,6.4,1.3c4.3,0.7,8.8,1.1,13.2,1.2
			c2.2,0.1,4.5,0,6.7-0.1c2.2-0.1,4.3-0.3,6.4-0.8c2.1-0.5,4.2-1.2,6.1-2.3c1.9-1.1,3.7-2.5,5.1-4.4c-0.3,1.2-0.8,2.2-1.4,3.3
			c-0.6,1-1.4,2-2.2,2.9c-1.7,1.8-3.7,3.3-5.9,4.5c-2.2,1.2-4.6,2.1-6.9,2.8c-2.4,0.7-4.7,1.2-7.1,1.6c-4.7,0.9-9.6,1.5-14.5,1.6
			c-2.4,0.1-4.9,0.1-7.3-0.1c-1.2-0.1-2.5-0.2-3.7-0.3c-0.6-0.1-1.2-0.1-1.9-0.2c-0.7-0.1-1.2-0.2-2-0.3l0,0l-12.6-3.2l10.3-7.9
			c2-1.5,4-3.3,6-5.1c2-1.8,4-3.6,6-5.5c4-3.7,7.9-7.6,11.8-11.5c3.9-3.9,7.7-7.8,11.4-11.8c1.9-2,3.7-4,5.4-6c0.8-1,1.7-2,2.3-2.9
			c0.2-0.2,0.3-0.4,0.4-0.6c0.1-0.2,0.2-0.3,0.2-0.3c0,0.1-0.1,0.1-0.2,0.7c0,0.1,0,0.2-0.1,0.3l-0.1,0.4c0,0.2,0,0.3,0,0.5l0,0.4
			c0,0.1,0,0.3,0,0.4c0,0.1,0,0.3,0.1,0.4c0,0.2,0.1,0.4,0.2,0.6c0.1,0.2,0.2,0.4,0.3,0.6c0.1,0.2,0.3,0.5,0.4,0.7
			c0.3,0.5,0.7,0.9,1.2,1.3c0.2,0.2,0.5,0.4,0.7,0.5c0.3,0.2,0.4,0.2,0.6,0.3c0.2,0.1,0.4,0.2,0.6,0.2l0.3,0.1l0.2,0
			c0.3,0.1,0.5,0.1,0.8,0.1c0.2,0,0.3,0,0.5,0c0.2,0,0.3,0,0.4,0c0.4-0.1,0.6-0.1,0.7-0.2c0.3-0.1,0.3-0.1,0.3-0.1l0,0l-0.2,0.4
			l-1.6,0.1c-3,0.1-5.7-0.2-8.3-0.5c-2.6-0.4-5.1-0.9-7.6-1.4c-4.9-1-9.6-2.1-14.4-2.9c-4.8-0.8-9.5-1.4-14.4-1.5
			C494.8,196.9,490,197.4,485.2,198.6z"/>
	</g>
	<g class="st1">
		<path class="st3" d="M554,198.6c4.4-2.2,9.3-3.7,14.2-4.6c5-1,10-1.4,15-1.5c5-0.2,10,0,14.9,0c2.4,0,4.8,0,7.1-0.2
			c2.3-0.1,4.5-0.4,6.4-0.9l-1.8,0.5l0,0c0.3-0.2,0.6-0.3,1.2-0.5c0.3-0.1,0.7-0.2,1.3-0.3c0.1,0,0.3,0,0.5,0c0.2,0,0.4,0,0.6,0
			c0.3,0,0.6,0.1,0.9,0.1l0.2,0l0.3,0.1c0.2,0.1,0.5,0.2,0.7,0.2c0.2,0.1,0.4,0.2,0.7,0.3c0.3,0.2,0.5,0.3,0.8,0.5
			c0.5,0.4,0.9,0.9,1.3,1.4c0.2,0.3,0.3,0.6,0.4,0.8c0.1,0.2,0.2,0.5,0.3,0.7c0.1,0.2,0.1,0.5,0.2,0.7c0,0.2,0.1,0.3,0.1,0.5
			c0.1,1.5-0.1,1.9-0.2,2.5c-0.2,0.9-0.4,1.3-0.6,1.6c-0.3,0.7-0.6,1.1-0.9,1.5c-0.3,0.4-0.5,0.8-0.8,1.1c-1,1.3-1.9,2.5-2.8,3.6
			c-1.9,2.2-3.8,4.4-5.7,6.5c-3.8,4.2-7.7,8.3-11.6,12.3c-3.9,4-7.9,8-12,11.9c-2,2-4.1,3.9-6.2,5.8c-2.1,1.9-4.2,3.8-6.7,5.7
			l-2.3-11.2l0,0c0.3,0.1,0.9,0.3,1.3,0.4l1.5,0.4c1,0.3,2.1,0.5,3.1,0.8c2.1,0.5,4.2,0.9,6.4,1.3c4.3,0.7,8.7,1.1,13.1,1.3
			c2.2,0.1,4.4,0,6.7-0.1c2.2-0.1,4.3-0.3,6.4-0.8c2.1-0.5,4.2-1.1,6.1-2.2c1.9-1.1,3.8-2.4,5.1-4.3c-0.3,1.1-0.8,2.2-1.5,3.2
			c-0.6,1-1.4,2-2.3,2.8c-1.7,1.7-3.8,3.2-6,4.3c-2.2,1.1-4.5,2-6.9,2.7c-2.3,0.6-4.6,1.2-7,1.6c-4.7,0.9-9.5,1.4-14.4,1.6
			c-2.4,0.1-4.9,0.1-7.3-0.1c-1.2-0.1-2.4-0.2-3.7-0.3c-0.6-0.1-1.2-0.1-1.9-0.2c-0.7-0.1-1.2-0.2-2-0.3l0,0l-12.6-3.2l10.3-7.9
			c2-1.5,4-3.3,6-5.1c2-1.8,4-3.6,6-5.5c4-3.7,7.9-7.6,11.8-11.5c3.9-3.9,7.7-7.8,11.4-11.8c1.9-2,3.7-4,5.4-6c0.8-1,1.7-2,2.3-2.9
			c0.2-0.2,0.3-0.4,0.4-0.6c0.1-0.2,0.2-0.3,0.2-0.3c0,0.1-0.1,0.1-0.2,0.7c0,0.1,0,0.2-0.1,0.3l-0.1,0.4c0,0.2,0,0.3,0,0.5l0,0.4
			c0,0.1,0,0.3,0,0.4c0,0.2,0,0.3,0.1,0.4c0,0.2,0.1,0.4,0.2,0.6c0.1,0.2,0.2,0.4,0.3,0.6c0.1,0.2,0.3,0.5,0.4,0.7
			c0.3,0.5,0.7,0.9,1.2,1.3c0.2,0.2,0.5,0.4,0.7,0.5c0.3,0.2,0.4,0.2,0.6,0.3c0.2,0.1,0.4,0.2,0.6,0.2l0.3,0.1l0.2,0
			c0.3,0.1,0.5,0.1,0.8,0.1c0.2,0,0.3,0,0.5,0c0.2,0,0.3,0,0.4,0c0.4-0.1,0.6-0.1,0.7-0.2c0.3-0.1,0.3-0.1,0.3-0.1l0,0l-0.2,0.4
			l-1.6,0.1c-3,0.1-5.7-0.2-8.3-0.5c-2.6-0.4-5.1-0.9-7.6-1.4c-4.9-1-9.6-2.1-14.4-2.9c-4.8-0.8-9.5-1.4-14.4-1.5
			C563.6,196.9,558.7,197.4,554,198.6z"/>
	</g>
	<g id="a" class="st1">
		<g>
			<path class="st3" d="M696.4,233.8c0,0.6-0.1,1.4-0.4,2.2c-0.3,0.8-0.7,1.7-1.2,2.5c-0.7,1.2-1.7,2.5-2.9,3.8
				c-1.2,1.3-2.5,2.5-4,3.6c-1.5,1.1-3.1,1.9-4.8,2.6c-1.7,0.7-3.5,1-5.4,1c-2.4,0-4.5-0.5-6.3-1.6c-1.8-1.1-3.3-2.6-4.5-4.4
				c-1.3-1.9-2.3-4.1-3.1-6.6c-0.8-2.5-1.5-5.1-2-7.9c-1.8,2.6-3.9,5.1-6.3,7.7c-2.4,2.5-5,4.8-7.6,6.9c-2.6,2-5.2,3.7-7.7,5
				c-2.5,1.3-4.7,1.9-6.7,1.9c-1.3,0-2.5-0.3-3.7-1c-1.2-0.6-2.2-1.5-3.1-2.6c-0.9-1.1-1.6-2.3-2.1-3.7c-0.5-1.4-0.8-2.9-0.8-4.5
				c0-1.6,0.1-3.2,0.4-5c0.3-1.7,0.7-3.6,1.3-5.6c0.6-2,1.4-4.2,2.4-6.5c1-2.3,2.2-4.9,3.7-7.7c1.6-3.1,3.5-6.1,5.7-8.9
				c2.2-2.8,4.5-5.3,6.8-7.4c2.3-2.1,7.9-5.7,11.6-6.9c0.3-0.1,17,9.8,17,10.6c0,0.4-0.1,1.2-0.4,2.5c-0.3,1.3-0.6,2.8-0.9,4.5
				c-0.3,1.7-0.7,3.5-0.9,5.3c-0.3,1.9-0.4,3.5-0.4,5.1c0,4.3,0.2,7.8,0.7,10.6c0.5,2.7,1.1,4.9,2,6.5c0.8,1.6,1.8,2.7,3,3.3
				c1.1,0.6,2.4,0.9,3.7,0.9c3.1,0,5.6-0.5,7.5-1.6c2-1,3.7-2.6,5.2-4.7c0.4-0.6,0.8-1.1,1.1-1.5c0.3-0.4,0.6-0.7,1-0.7
				c0.6,0,1.1,0.2,1.5,0.7C696.1,232.8,696.4,233.3,696.4,233.8z M662.6,206.8c0-3-0.5-5.2-1.4-6.5c-0.9-1.3-1.9-2-3.1-2
				c-1,0-2,0.2-3.1,0.6c-1,0.4-2,0.9-2.9,1.5c-0.9,0.6-1.8,1.3-2.5,2c-0.8,0.7-1.4,1.4-1.9,2.1c-1,1.3-2,2.8-3.1,4.4
				c-1.1,1.7-2.1,3.4-3.2,5.2c-1.1,1.8-2.1,3.7-3.1,5.6c-1,1.9-1.8,3.7-2.6,5.5c-0.7,1.8-1.3,3.5-1.8,5.1c-0.4,1.6-0.7,3.1-0.7,4.4
				c0,1.9,0.4,3.4,1.1,4.6c0.7,1.1,2.1,1.7,4.1,1.7c0.7,0,1.7-0.4,3-1.3c1.3-0.9,2.7-2,4.3-3.3c1.5-1.3,3-2.8,4.4-4.3
				c1.5-1.6,2.6-3,3.6-4.4c1-1.5,2-3.1,3.1-4.9c1-1.8,2-3.6,2.8-5.4c0.8-1.9,1.5-3.7,2.1-5.5C662.3,210,662.6,208.4,662.6,206.8z
				 M655.6,190.8c0.4,0,20-7.8,17,10.6c-0.1,0.4-0.1,1.2-0.4,2.5"/>
			<path class="st3" d="M633.5,251.9c-1.5,0-3-0.4-4.4-1.1c-1.3-0.7-2.6-1.7-3.6-3c-1-1.2-1.8-2.6-2.4-4.2c-0.6-1.6-0.9-3.2-0.9-5
				c0-1.6,0.1-3.4,0.4-5.2c0.3-1.8,0.7-3.8,1.4-5.8c0.6-2,1.5-4.2,2.5-6.6c1-2.4,2.2-5,3.7-7.8c1.6-3.2,3.6-6.3,5.9-9.2
				c2.3-2.9,4.6-5.4,6.9-7.5c2.5-2.3,8.3-5.9,12.2-7.2c0.1,0,0.2-0.1,0.2-0.1c0,0,0.1,0,0.2-0.1c9-2.9,13.5-1.3,15.8,0.6
				c2.7,2.3,3.6,6.3,2.8,11.7c0,0.4-0.1,1.1-0.5,2.7c-0.3,1.3-0.6,2.8-0.9,4.5c-0.3,1.7-0.6,3.5-0.9,5.3c-0.3,1.8-0.4,3.4-0.4,4.9
				c0,4.2,0.2,7.7,0.7,10.3c0.5,2.6,1.1,4.6,1.8,6.1c0.7,1.3,1.5,2.2,2.4,2.7c0.9,0.5,1.9,0.7,3,0.7c2.8,0,5.1-0.5,6.8-1.4
				c1.7-0.9,3.3-2.4,4.7-4.2c0.5-0.6,0.8-1.1,1.1-1.5c0.8-1.1,1.6-1.3,2.2-1.3c0.9,0,1.8,0.4,2.6,1.1c1,0.9,1.2,1.9,1.2,2.5
				c0,0.8-0.2,1.7-0.5,2.7c-0.3,1-0.8,1.9-1.4,2.9c-0.7,1.3-1.8,2.6-3,4c-1.2,1.4-2.7,2.6-4.2,3.8c-1.6,1.1-3.3,2.1-5.1,2.8
				c-1.9,0.8-3.9,1.1-5.9,1.1c-2.7,0-5.1-0.6-7-1.9c-1.9-1.2-3.6-2.8-5-4.9c-1.3-2-2.5-4.3-3.3-6.9c-0.5-1.5-1-3.2-1.4-4.8
				c-1.3,1.7-2.8,3.4-4.5,5.1c-2.5,2.6-5.1,4.9-7.7,7c-2.7,2.1-5.3,3.8-7.9,5.1C638.2,251.2,635.7,251.9,633.5,251.9z M655.6,192.4
				c-3.4,1.3-8.4,4.4-10.5,6.4c-2.2,2.1-4.5,4.5-6.6,7.2c-2.1,2.7-4,5.6-5.6,8.7c-1.4,2.7-2.6,5.3-3.6,7.6c-1,2.3-1.8,4.4-2.4,6.4
				c-0.6,1.9-1,3.7-1.3,5.4c-0.2,1.7-0.4,3.2-0.4,4.7c0,1.4,0.2,2.7,0.7,3.9c0.5,1.2,1.1,2.4,1.9,3.3c0.8,0.9,1.7,1.7,2.7,2.2
				c1,0.5,2,0.8,3,0.8c1.7,0,3.7-0.6,6-1.7c2.4-1.2,4.9-2.8,7.4-4.8c2.5-2,5-4.2,7.4-6.7c2.4-2.5,4.4-5,6.2-7.5l2-3l0.7,3.5
				c0.5,2.7,1.2,5.3,2,7.7c0.8,2.4,1.8,4.4,3,6.2c1.1,1.7,2.5,3,4.1,4c1.5,0.9,3.3,1.4,5.5,1.4c1.7,0,3.3-0.3,4.8-0.9
				c1.6-0.6,3.1-1.5,4.5-2.4c1.4-1,2.6-2.1,3.8-3.4c1.1-1.2,2-2.4,2.7-3.6c0.5-0.8,0.9-1.5,1.1-2.2c0.2-0.7,0.3-1.3,0.3-1.8
				c0,0,0-0.1-0.2-0.3c-0.1-0.1-0.2-0.2-0.3-0.2c-0.3,0.5-0.7,1-1.2,1.5c-1.6,2.2-3.6,3.9-5.7,5c-2.2,1.2-4.9,1.7-8.2,1.7
				c-1.5,0-3-0.4-4.4-1.1c-1.4-0.7-2.6-2.1-3.6-3.9c-0.9-1.7-1.6-4-2.1-6.9c-0.5-2.8-0.7-6.5-0.7-10.8c0-1.6,0.1-3.4,0.4-5.3
				c0.3-1.9,0.6-3.7,0.9-5.4c0.3-1.7,0.7-3.2,0.9-4.5c0.2-0.7,0.2-1.3,0.3-1.7C668.7,200.1,658.1,193.6,655.6,192.4z M659.6,191.2
				c0.9,0.5,2,1.2,3.4,2.1c1.4,0.8,5.7,3.4,8.4,5.3c0.1-3-0.6-5.1-2-6.4C667.5,190.5,664.1,190.2,659.6,191.2z M638.6,242.5
				c-2.6,0-4.4-0.8-5.4-2.4c-0.9-1.4-1.3-3.2-1.3-5.4c0-1.4,0.2-3,0.7-4.8c0.5-1.7,1.1-3.5,1.8-5.3c0.8-1.8,1.6-3.7,2.6-5.6
				c1-1.9,2-3.8,3.1-5.6c1.1-1.8,2.2-3.6,3.2-5.2c1.1-1.6,2.1-3.2,3.1-4.5c0.5-0.7,1.2-1.5,2-2.3c0.8-0.8,1.7-1.5,2.7-2.2
				c1-0.7,2.1-1.2,3.2-1.6c1.2-0.4,2.4-0.7,3.6-0.7c1.7,0,3.2,0.9,4.4,2.6c1.1,1.6,1.6,4,1.6,7.4c0,1.7-0.3,3.5-0.8,5.4
				c-0.5,1.9-1.3,3.8-2.1,5.7c-0.9,1.9-1.8,3.8-2.9,5.6c-1,1.8-2.1,3.5-3.1,5c-1,1.5-2.2,3-3.7,4.6c-1.5,1.6-3,3.1-4.5,4.4
				c-1.6,1.4-3,2.5-4.4,3.4C640.8,242,639.6,242.5,638.6,242.5z M658.1,199.8c-0.8,0-1.7,0.2-2.5,0.5c-0.9,0.3-1.8,0.8-2.6,1.3
				c-0.9,0.6-1.6,1.2-2.3,1.8c-0.7,0.7-1.3,1.3-1.7,1.9c-1,1.3-2,2.8-3,4.4c-1.1,1.6-2.1,3.4-3.2,5.1c-1,1.8-2.1,3.6-3,5.5
				c-1,1.9-1.8,3.7-2.5,5.4c-0.7,1.7-1.3,3.4-1.7,5c-0.4,1.5-0.6,2.8-0.6,4c0,1.6,0.3,2.9,0.9,3.8c0.4,0.7,1.4,1,2.8,1
				c0.1,0,0.6,0,2.2-1.1c1.3-0.8,2.6-1.9,4.1-3.2c1.5-1.3,2.9-2.7,4.3-4.2c1.4-1.5,2.5-2.9,3.4-4.2c1-1.5,2-3.1,3-4.8
				c1-1.7,1.9-3.5,2.7-5.3c0.8-1.8,1.5-3.6,2-5.3c0.5-1.6,0.7-3.2,0.7-4.6c0-3.4-0.6-4.9-1.1-5.7
				C659.1,199.8,658.4,199.8,658.1,199.8z"/>
		</g>
	</g>
	<g id="_xAE_" class="st1">
		<g>
			<path class="st3" d="M697.9,179.8c-0.2,4.5-3.8,7.8-8.4,7.6c-4.5-0.2-8-3.8-7.8-8.3c0.2-4.4,3.9-7.7,8.4-7.5
				C694.7,171.8,698,175.4,697.9,179.8z M683.7,179.2c-0.1,3.5,2.3,6.4,5.9,6.5c3.5,0.1,6.1-2.5,6.3-6c0.1-3.5-2.3-6.4-5.8-6.6
				C686.6,173,683.9,175.8,683.7,179.2z M688.4,183.5l-1.8-0.1l0.3-7.9c0.7-0.1,1.7-0.2,3-0.1c1.5,0.1,2.1,0.3,2.7,0.7
				c0.4,0.4,0.7,1,0.7,1.8c0,0.9-0.7,1.5-1.7,1.8l0,0.1c0.8,0.3,1.2,0.9,1.4,2c0.2,1.2,0.3,1.7,0.5,2l-2-0.1c-0.2-0.3-0.3-1-0.5-1.9
				c-0.1-0.9-0.6-1.3-1.6-1.3l-0.9,0L688.4,183.5z M688.6,179.1l0.9,0c1,0,1.8-0.3,1.9-1.1c0-0.7-0.5-1.2-1.6-1.3
				c-0.5,0-0.8,0-1,0.1L688.6,179.1z"/>
		</g>
	</g>
	<g id="Capa_4" class="st1">
	</g>
</g>
<g id="logo-negro">
	<g>
		<path class="st2" d="M97.1,275.2c-0.3-3.8-0.3-7.6-0.4-11.4c0-3.8,0.1-7.5,0.2-11.3c0.3-7.5,0.8-15,1.4-22.4
			c1.4-14.9,3.4-29.6,6-44.3c2.6-14.7,5.9-29.2,9.9-43.7c2-7.2,4.2-14.4,6.8-21.5c1.3-3.5,2.6-7.1,4.2-10.6c0.8-1.7,1.6-3.5,2.4-5.2
			c0.4-0.9,0.9-1.7,1.4-2.5c0.5-0.8,1-1.7,1.8-2.3c-0.3,0.4-0.3,0.9-0.4,1.3c-0.1,0.5-0.2,0.9-0.2,1.4c-0.1,0.9-0.2,1.9-0.3,2.8
			c-0.2,1.9-0.3,3.7-0.4,5.6l-0.8,11.2c-0.6,7.4-1.3,14.8-2.1,22.2c-1.7,14.8-3.8,29.5-6.5,44.1c-2.6,14.6-5.7,29.1-9.4,43.6
			c-1.9,7.2-3.8,14.4-6.1,21.6C102.4,261,100.1,268.2,97.1,275.2z"/>
	</g>
	<g id="R_fuera_2_">
		<path class="st2" d="M58.9,131.3c3.3-2.7,6.8-5.1,10.3-7.5c3.5-2.4,7.1-4.8,10.6-7.1c7.2-4.6,14.4-9.2,21.8-13.5
			c3.7-2.2,7.4-4.3,11.2-6.4c3.8-2,7.6-4.1,11.8-5.7c7.8-3.3,15.8-6.6,24-9.4c4.1-1.4,8.4-2.6,12.7-3.7c2.2-0.5,4.3-1,6.6-1.4
			l1.6-0.3l1.7-0.3c1.1-0.2,2.2-0.3,3.4-0.4c4.5-0.5,9.1-0.7,13.6-0.5c4.6,0.2,9.2,0.7,13.7,1.6c9.1,1.8,18,5.1,26.1,10.4
			c8.1,5.2,15.1,12.4,19.9,21c2.5,4.4,4.3,9.2,5.4,14.1c1.1,5,1.4,10.1,0.8,15.2c-1,10.2-5.4,20-12.1,27.5c-1.7,1.9-3.4,3.7-5.3,5.3
			c-1,0.9-1.8,1.5-2.8,2.3c-1,0.7-1.9,1.4-2.9,2.1c-4,2.7-8.2,5-12.5,6.9c-8.6,3.8-17.6,6-26.5,7.3c-8.9,1.3-17.7,1.8-26.5,1.8
			c-8.7,0.1-17.4-0.3-25.9-0.8c-8.6-0.6-17.1-1.3-25.5-2l-12.7-1.1l-1.5-0.1l-1.5-0.1l-3.2-0.2c-2.3-0.2-4.8-0.4-7.5-1.3l0,0
			c-2.4-0.6-3.8-3-3.2-5.4c0.6-2.2,2.7-3.6,4.9-3.3l0.3,0c7.5,1,15,2.1,22.5,3.3l2.8,0.5l2.8,0.5c1.5,0.2,3.3,0.4,5,0.5
			c3.6,0.2,7.3,0.2,11.1,0.2c3.8,0,7.6,0.1,11.5,0.3c3.9,0.2,7.9,0.6,11.9,1.4c4,0.8,8.2,1.9,12.2,3.9c2,1,4,2.3,5.9,3.9
			c1.8,1.6,3.5,3.5,4.8,5.7l-0.4-0.6c2,2.5,4.1,5.2,6.1,8.2c2,3,3.6,6.2,5,9.3c2.8,6.3,4.8,12.6,6.7,18.9l1.4,4.6
			c0.5,1.5,1,2.9,1.5,4.3c1.1,2.9,2.3,5.7,3.6,8.3c1.4,2.7,2.9,5.2,4.6,7.6c1.7,2.3,3.6,4.4,5.6,5.8c0.9,0.7,1.9,1.1,2.3,1.1l4.3,0
			l9.7,0.1l19.4,0.2l38.8,0.4l155.1,1.4l310.2,2.9l-310.2,2.8l-155.1,1.4l-38.8,0.3l-19.4,0.2l-9.7,0.1l-2.4,0l-1.2,0l-0.6,0l-0.2,0
			c0.2,0-0.5,0-0.5,0c-0.2,0-0.4,0-0.6-0.1c-2.9-0.4-4.8-1.5-6.6-2.6c-3.4-2.3-5.9-5-8.1-7.9c-2.2-2.8-4-5.8-5.7-8.8
			c-1.7-3-3.1-6.2-4.4-9.3c-0.6-1.6-1.2-3.2-1.8-4.8c-0.6-1.7-1.1-3.2-1.6-4.7c-2-6-4.1-12-6.6-17.5c-1.2-2.8-2.6-5.3-4.2-7.7
			c-1.6-2.4-3.5-4.8-5.5-7.3l0,0c-0.1-0.2-0.3-0.4-0.4-0.6c-1.3-2.2-3.3-4-6-5.4c-2.7-1.4-5.9-2.4-9.2-3c-6.8-1.4-14.1-1.6-21.6-1.9
			c-3.8-0.2-7.6-0.3-11.6-0.6c-2-0.2-4-0.4-6.2-0.8l-2.8-0.6l-2.7-0.5l-22.2-4.3l2-8.7l0,0c1.4,0.3,3.1,0.3,5.1,0.2l3.2-0.2l1.7-0.1
			l1.6,0c4.3-0.1,8.6-0.1,12.8-0.1c8.5,0,17,0.2,25.4,0.1c8.4,0,16.8-0.1,25.1-0.6c8.3-0.4,16.4-1.2,24.3-2.6
			c7.9-1.4,15.5-3.5,22.4-6.6c3.5-1.6,6.7-3.4,9.7-5.5c0.8-0.5,1.5-1.1,2.2-1.6c0.6-0.5,1.5-1.2,2.1-1.7c1.3-1.2,2.6-2.4,3.7-3.7
			c4.5-5.2,7.5-11.7,8.2-18.4c0.4-3.4,0.3-6.8-0.4-10.2c-0.6-3.3-1.9-6.7-3.5-9.7c-3.4-6.4-8.3-11.8-14.4-16.1
			c-6.1-4.3-13.2-7.4-20.7-9.4c-3.8-1-7.6-1.7-11.5-2.1c-3.9-0.4-7.8-0.6-11.9-0.5c-1,0-2,0.1-3,0.1L171,88l-1.6,0.1
			c-1.9,0.2-4,0.4-6,0.7c-4,0.6-8.1,1.3-12.1,2.3c-8.1,1.8-16.2,4.2-24.5,6.4c-3.7,1.1-7.6,2.9-11.5,4.6c-3.8,1.7-7.7,3.5-11.5,5.4
			c-7.6,3.7-15.2,7.5-22.7,11.5C73.7,122.9,66.2,126.8,58.9,131.3z"/>
	</g>
	<g>
		<path id="o_2_" d="M258.4,218.4c-1.6,9.3-4.8,16.9-9.6,23c-4.8,6.1-11.1,9.1-18.9,9.1c-6.5,0-11.3-2.7-14.2-8
			c-2.9-5.4-3.6-12.5-2-21.6c1.7-9.7,5.1-15.9,10.2-21.6c5.1-5.7,11-8.4,17.8-8.4c6.1,0,10.9,2.5,14.2,7.4
			C259.3,203.2,260.1,208.8,258.4,218.4z M250,218.7c0.9-5.4,1-8.1,0.2-11.5c-1.3-5.3-4.7-7.9-10.2-7.9c-4.9,0-8.8,2.3-11.8,6.8
			c-3,4.5-5.1,8.3-6.2,14.7c-1.1,6.1-0.9,11.2,0.6,15.3c1.5,4.1,4.7,6.1,9.5,6.1c5.3,0,9.4-2.4,12.2-7.3
			C247.1,230,249,224.6,250,218.7z"/>
		<path d="M229.8,252c-7.1,0-12.3-3-15.5-8.8c-3.1-5.6-3.8-13.2-2.2-22.5c1.6-9.2,4.8-15.9,10.5-22.4c5.2-5.9,11.6-8.9,19-8.9
			c6.6,0,11.8,2.7,15.5,8.1c3.7,5.4,4.5,11.5,2.7,21.3c-1.7,9.5-5,17.4-9.9,23.7C244.9,248.8,238.1,252,229.8,252z M241.7,192.4
			c-6.6,0-12,2.6-16.7,7.9c-5.4,6.1-8.3,12.3-9.8,20.9c-1.5,8.6-0.9,15.6,1.8,20.6c2.6,4.9,6.8,7.2,12.8,7.2
			c7.4,0,13.2-2.8,17.8-8.5c4.6-5.8,7.8-13.3,9.3-22.3c1.6-9,0.9-14.3-2.3-19.1C251.6,194.6,247.3,192.4,241.7,192.4z M232,243.7
			c-5.4,0-9.2-2.5-10.9-7.1c-1.6-4.3-1.8-9.7-0.7-16.1c1.1-6.4,3.1-10.3,6.4-15.2c3.3-5,7.7-7.5,13.1-7.5c6.2,0,10.2,3.1,11.7,9.1
			c0.9,3.5,0.8,6.5-0.2,12.1c-1.1,6.1-3.1,11.7-6,16.7C242.4,241,237.9,243.7,232,243.7z M239.9,200.8c-4.4,0-7.8,2-10.6,6.1
			c-3.1,4.7-4.9,8.2-6,14.1c-1,5.8-0.8,10.7,0.6,14.5c1.3,3.5,3.8,5.1,8.1,5.1c4.8,0,8.3-2.1,10.9-6.5c2.7-4.7,4.6-10,5.6-15.7
			c0.9-5.2,1-7.8,0.2-10.9C247.6,202.9,244.8,200.8,239.9,200.8z"/>
	</g>
	<g>
		<path id="L_1_2_" d="M275.3,171.6h9.7l-16.8,78.9h-9.7L275.3,171.6z"/>
		<path d="M269.5,252h-12.7l17.4-81.9h12.7L269.5,252z M260.4,249h6.6l16.1-75.9h-6.6L260.4,249z"/>
	</g>
	<g>
		<path id="L2_2_" d="M293.1,171.6h9.7L286,250.5h-9.7L293.1,171.6z"/>
		<path d="M287.2,252h-12.7l17.4-81.9h12.7L287.2,252z M278.2,249h6.6l16.1-75.9h-6.6L278.2,249z"/>
	</g>
	<path id="e_1_" class="st8" d="M335.2,242.2c-6.2,6-15.5,8.3-18.1,8.3h-0.4c-6.1,0-10.7-1.8-13.8-5.3c-3-3.5-4.6-8.4-4.6-14.7
		c0-2.5,0.2-5.2,0.6-7.9c0.4-2.8,1.1-5.6,2.1-8.5c1-2.9,2.3-5.8,4-8.6c1.7-2.9,3.9-5.7,6.5-8.4c2-2,4-3.5,6.2-4.5
		c2.2-1.1,4.2-1.6,6.2-1.6c0.3,0,0.7,0.1,1.1,0.2c0.5,0.1,0.9,0.3,1.4,0.6c0.5,0.2,0.9,0.5,1.4,0.9c0.4,0.3,0.8,0.7,1.2,1.1
		c1,1.3,1.7,2.5,2.2,3.7c0.5,1.2,0.7,2.6,0.7,4.1c0,2.1-0.3,4-0.9,5.7c-0.6,1.7-1.4,3.4-2.5,5c-1.1,1.6-2.4,3.2-4,4.9
		c-1.6,1.6-3.4,3.4-5.4,5.3c-0.7,0.6-1.5,1.4-2.4,2.1c-0.9,0.8-1.9,1.6-3,2.5c-1.1,0.9-2.2,1.8-3.3,2.7c-1.1,0.9-2.3,1.8-3.4,2.7
		c0.3,6.4,3.8,9.6,10.7,9.6c3.8,0,13.1-6.7,14.3-7.6C333.4,233.4,344.2,232.2,335.2,242.2z M323.8,203.7c0-1.1-0.3-2-0.9-2.8
		c-0.6-0.8-1.3-1.2-2.1-1.2c-0.6,0-1.4,0.3-2.3,0.8c-0.9,0.5-2,1.4-3,2.7c-2.2,2.7-4,5.8-5.6,9.6c-1.5,3.7-2.6,7.9-3.2,12.5
		c2.3-1.8,4.2-3.5,5.7-4.9c1.6-1.4,3-2.8,4.2-4c0.9-0.9,1.7-1.8,2.6-2.7c0.8-1,1.6-2,2.3-3.1c0.7-1.1,1.3-2.2,1.7-3.3
		C323.6,206,323.8,204.9,323.8,203.7z"/>
	<path id="r_minus_1_" class="st9" d="M335.8,235.6c6.4-8.5,15.8-27,9.5-40.8c0,0,13.8,5.7,35.9-0.5c-7.5,8.5-21.2,23.8-22.1,30.9
		c-0.8,3.9-1.3,8.2-0.2,12.1c1.2,4.2,5.2,10.1,10,10.1c1.9,0,5.6-0.2,7.3-1"/>
	<g id="P_2_">
		<g>
			<path class="st6" d="M398.7,289.1c-0.1-6.1,0.1-12.2,0.2-18.3l0.3-9.1c0.1-3,0.4-6,0.7-9c0.7-6,0.7-12.1,1.3-18.1
				c0.3-3,0.9-5.9,1.7-8.8l0.6-2.2l0.7-2.2c0.3-0.7,0.9-1.3,2.1-1.9c1.3-0.5,2.9-1,5.8-1.2l1.6,0.3c2.6,1.3,3.9,2.3,4.9,3.2
				c0.9,0.9,1.3,1.8,1.3,2.5l-0.1,2.3l-0.2,2.3c-0.3,3-0.9,5.9-1.7,8.8c-1.6,5.8-3.9,11.5-5.5,17.3c-0.8,2.9-1.7,5.8-2.7,8.6
				l-3.1,8.6c-2.1,5.7-4.1,11.4-6.5,17.1L398.7,289.1z"/>
		</g>
		<g>
			<path class="st6" d="M384.3,227.7c1.8-2.8,3.7-5.4,5.8-8c2.1-2.5,4.3-5,6.5-7.4c4.6-4.7,9.5-9.1,15-13c5.5-3.9,11.4-7.5,18.6-9.8
				c3.6-1.1,7.6-2,12.2-1.6c2.3,0.2,4.7,0.7,7.1,1.8c2.4,1,4.6,2.6,6.4,4.5l0.3,0.3l0.2,0.2c1.2,1.6,2.4,3.3,3.4,5.5
				c0.9,2.1,1.6,4.6,1.7,7.2c0.1,2.6-0.4,5.2-1.3,7.3c-0.9,2.2-2,4.1-3.3,5.6c-2.5,3.2-5.3,5.4-8.1,7.3c-2.8,1.9-5.6,3.4-8.5,4.7
				c-2.9,1.3-5.7,2.4-8.6,3.4c-2.9,1-5.8,1.8-8.7,2.6c-5.9,1.5-11.7,2.5-17.7,3.4c2.3-2.1,4.7-3.9,7.2-5.6c2.5-1.7,4.9-3.4,7.4-5
				c4.9-3.2,9.8-6.4,14.2-9.6c2.2-1.6,4.3-3.3,6.2-5c1.9-1.7,3.5-3.5,4.5-5c0.5-0.8,0.8-1.5,1-2c0.1-0.6,0.2-0.9,0.1-1.3
				c0-0.3-0.2-0.7-0.4-1.3c-0.3-0.6-0.7-1.2-1.3-2l0.5,0.5c-0.4-0.5-0.9-0.8-1.4-1c-0.5-0.3-1.2-0.5-2.1-0.6c-1.8-0.2-4.2,0-6.7,0.5
				c-5.1,1.1-10.7,3.4-16.2,6c-5.5,2.6-11,5.5-16.6,8.5C395.8,221.6,390.2,224.7,384.3,227.7z"/>
		</g>
	</g>
	<path id="i_2_" d="M472.1,192.1h9.8l-12.1,58.4H460L472.1,192.1z M476,173.1h9.8l-1.6,8.1h-9.8L476,173.1z"/>
	<path d="M471.1,252h-12.9l12.8-61.4h12.9L471.1,252z M461.8,249h6.8l11.5-55.4h-6.8L461.8,249z M485.5,182.7h-12.9l2.2-11.1h12.9
		L485.5,182.7z M476.2,179.7h6.8l1-5.1h-6.8L476.2,179.7z"/>
	<g>
		<path d="M485.2,198.6c4.4-2.2,9.3-3.7,14.2-4.6c5-1,10-1.4,15-1.5c5-0.2,10,0,14.9,0c4.8,0,9.7-0.1,13.5-1.1l-1.8,0.5
			c0.3-0.2,0.6-0.3,1.2-0.5c0.3-0.1,0.7-0.2,1.3-0.3c0.1,0,0.3,0,0.5,0c0.2,0,0.4,0,0.6,0c0.3,0,0.6,0.1,0.9,0.1l0.2,0l0.3,0.1
			c0.2,0.1,0.5,0.1,0.7,0.2c0.2,0.1,0.4,0.2,0.7,0.3c0.3,0.2,0.5,0.3,0.8,0.5c0.5,0.4,0.9,0.8,1.3,1.4c0.2,0.3,0.3,0.6,0.5,0.8
			c0.1,0.2,0.2,0.5,0.3,0.7c0.1,0.2,0.1,0.5,0.2,0.7c0,0.2,0.1,0.3,0.1,0.5c0,0.3,0.1,0.7,0,0.9c0,0.2,0,0.4,0,0.6
			c0,0.2,0,0.3-0.1,0.5l-0.1,0.4c-0.2,0.9-0.4,1.3-0.6,1.6c-0.3,0.7-0.6,1.1-0.9,1.5c-0.3,0.4-0.5,0.8-0.8,1.1
			c-1,1.3-1.9,2.5-2.8,3.6c-1.9,2.3-3.8,4.4-5.7,6.5c-3.8,4.2-7.7,8.3-11.6,12.3c-3.9,4-7.9,8-12,11.9c-2,2-4.1,3.9-6.2,5.8
			c-2.1,1.9-4.2,3.8-6.7,5.7l0,0l-2.3-11.2c0.3,0.1,0.9,0.3,1.4,0.4l1.5,0.4c1,0.3,2.1,0.5,3.1,0.8c2.1,0.5,4.3,0.9,6.4,1.3
			c4.3,0.7,8.8,1.1,13.2,1.3l3.3,0l3.3-0.1c2.1-0.1,4.3-0.3,6.4-0.8c2.1-0.5,4.2-1.2,6.1-2.3c1.9-1.1,3.7-2.5,5.1-4.4
			c-0.3,1.2-0.8,2.2-1.4,3.3c-0.6,1.1-1.4,2-2.2,2.9c-1.7,1.8-3.7,3.3-5.9,4.5c-2.2,1.2-4.5,2.1-6.9,2.8c-1.2,0.3-2.3,0.6-3.5,0.9
			l-3.5,0.7c-4.7,0.9-9.6,1.4-14.5,1.6c-2.4,0.1-4.9,0.1-7.3-0.1c-1.2-0.1-2.5-0.1-3.7-0.3c-0.6-0.1-1.3-0.1-1.9-0.2
			c-0.7-0.1-1.2-0.2-2-0.3l-11.9-2.2l9.6-8.9l0,0c2-1.5,4-3.3,6-5.1c2-1.8,4-3.6,6-5.5c4-3.7,7.9-7.6,11.8-11.5
			c3.9-3.9,7.7-7.8,11.4-11.8c1.9-2,3.7-4,5.4-6c0.8-1,1.7-2,2.3-2.9c0.2-0.2,0.3-0.4,0.4-0.6c0.1-0.2,0.2-0.3,0.2-0.3
			c0,0.1-0.1,0.1-0.2,0.7c0,0.1,0,0.2-0.1,0.3l-0.1,0.4c0,0.2,0,0.3,0,0.5c0,0.2,0,0.5,0,0.8c0,0.2,0,0.3,0.1,0.4
			c0,0.2,0.1,0.4,0.2,0.6c0.1,0.2,0.2,0.4,0.3,0.6c0.1,0.2,0.3,0.5,0.4,0.7c0.3,0.5,0.7,0.9,1.2,1.3c0.2,0.2,0.5,0.3,0.7,0.5
			c0.3,0.2,0.4,0.2,0.6,0.3c0.2,0.1,0.4,0.2,0.6,0.2l0.3,0.1l0.2,0c0.3,0.1,0.5,0.1,0.8,0.1c0.2,0,0.3,0,0.5,0c0.2,0,0.3,0,0.4,0
			c0.4-0.1,0.6-0.1,0.7-0.2c0.3-0.1,0.3-0.1,0.3-0.1l-1.8,0.5c-6,0.2-11-0.9-15.9-1.9c-4.9-1-9.6-2.1-14.4-2.9
			c-4.8-0.8-9.5-1.4-14.4-1.5C494.8,196.9,490,197.4,485.2,198.6z"/>
	</g>
	<g>
		<path d="M554,198.6c4.4-2.2,9.3-3.7,14.2-4.6c5-1,10-1.4,15-1.5c5-0.2,10,0,14.9,0c4.8,0,9.7-0.1,13.5-1.1l-1.8,0.5
			c0.3-0.2,0.6-0.3,1.2-0.5c0.3-0.1,0.7-0.2,1.3-0.3c0.1,0,0.3,0,0.5,0c0.2,0,0.4,0,0.6,0c0.3,0,0.6,0.1,0.9,0.1l0.2,0l0.3,0.1
			c0.2,0.1,0.5,0.1,0.7,0.2c0.2,0.1,0.4,0.2,0.7,0.3c0.3,0.2,0.5,0.3,0.8,0.5c0.5,0.4,0.9,0.8,1.3,1.4c0.2,0.3,0.3,0.6,0.5,0.8
			c0.1,0.2,0.2,0.4,0.3,0.7c0.1,0.2,0.1,0.5,0.2,0.7c0,0.2,0.1,0.3,0.1,0.5c0,0.3,0.1,0.7,0,0.9c0,0.2,0,0.4,0,0.6
			c0,0.2,0,0.3-0.1,0.5l-0.1,0.4c-0.2,0.9-0.4,1.3-0.6,1.6c-0.3,0.7-0.6,1.1-0.9,1.5c-0.3,0.4-0.5,0.8-0.8,1.1
			c-1,1.3-1.9,2.5-2.8,3.6c-1.9,2.3-3.8,4.4-5.7,6.5c-3.8,4.2-7.7,8.3-11.6,12.3c-3.9,4-7.9,8-12,11.9c-2,2-4.1,3.9-6.2,5.8
			c-2.1,1.9-4.2,3.8-6.7,5.7l0,0l-2.3-11.2c0.3,0.1,0.9,0.3,1.3,0.4l1.5,0.4c1,0.3,2.1,0.5,3.1,0.8c2.1,0.5,4.2,0.9,6.4,1.3
			c4.3,0.7,8.7,1.1,13.1,1.3l3.3,0l3.3-0.1c2.1-0.1,4.3-0.3,6.4-0.8c2.1-0.5,4.2-1.1,6.1-2.2c1.9-1.1,3.8-2.4,5.1-4.3
			c-0.3,1.1-0.8,2.2-1.5,3.2c-0.6,1-1.4,2-2.3,2.8c-1.7,1.7-3.8,3.2-6,4.3c-2.2,1.2-4.5,2-6.9,2.7l-3.5,0.9l-3.5,0.7
			c-4.7,0.9-9.5,1.4-14.4,1.6c-2.4,0.1-4.9,0.1-7.3-0.1c-1.2-0.1-2.4-0.1-3.7-0.3c-0.6-0.1-1.2-0.1-1.9-0.2c-0.7-0.1-1.2-0.2-2-0.3
			l-11.9-2.2l9.6-8.9l0,0c2-1.5,4-3.3,6-5.1c2-1.8,4-3.6,6-5.5c4-3.7,7.9-7.6,11.8-11.5c3.9-3.9,7.7-7.8,11.4-11.8
			c1.9-2,3.7-4,5.4-6c0.8-1,1.7-2,2.3-2.9c0.2-0.2,0.3-0.4,0.4-0.6c0.1-0.2,0.2-0.3,0.2-0.3c0,0.1-0.1,0.1-0.2,0.7
			c0,0.1,0,0.2-0.1,0.3l-0.1,0.4c0,0.2,0,0.3,0,0.5c0,0.2,0,0.5,0,0.8c0,0.2,0,0.3,0.1,0.4c0,0.2,0.1,0.4,0.2,0.6
			c0.1,0.2,0.2,0.4,0.3,0.6c0.1,0.2,0.3,0.5,0.4,0.7c0.3,0.5,0.7,0.9,1.2,1.3c0.2,0.2,0.5,0.3,0.7,0.5c0.3,0.2,0.4,0.2,0.6,0.3
			c0.2,0.1,0.4,0.2,0.6,0.2l0.3,0.1l0.2,0c0.3,0.1,0.5,0.1,0.8,0.1c0.2,0,0.3,0,0.5,0c0.2,0,0.3,0,0.4,0c0.4-0.1,0.6-0.1,0.7-0.2
			c0.3-0.1,0.3-0.1,0.3-0.1l-1.8,0.5c-6,0.2-11-0.9-15.9-1.9c-4.9-1-9.6-2.1-14.4-2.9c-4.8-0.8-9.5-1.4-14.4-1.5
			C563.6,196.9,558.7,197.4,554,198.6z"/>
	</g>
	<g id="a_1_">
		<g>
			<path d="M696.4,233.8c0,0.6-0.1,1.4-0.4,2.2c-0.3,0.8-0.7,1.7-1.2,2.5c-0.7,1.2-1.7,2.5-2.9,3.8c-1.2,1.3-2.5,2.5-4,3.6
				c-1.5,1.1-3.1,1.9-4.8,2.6c-1.7,0.7-3.5,1-5.4,1c-2.4,0-4.5-0.5-6.3-1.6c-1.8-1.1-3.3-2.6-4.5-4.4c-1.3-1.9-2.3-4.1-3.1-6.6
				c-0.8-2.5-1.5-5.1-2-7.9c-1.8,2.6-3.9,5.1-6.3,7.7c-2.4,2.5-5,4.8-7.6,6.9c-2.6,2-5.2,3.7-7.7,5c-2.5,1.3-4.7,1.9-6.7,1.9
				c-1.3,0-2.5-0.3-3.7-1c-1.2-0.6-2.2-1.5-3.1-2.6c-0.9-1.1-1.6-2.3-2.1-3.7c-0.5-1.4-0.8-2.9-0.8-4.5c0-1.6,0.1-3.2,0.4-5
				c0.3-1.7,0.7-3.6,1.3-5.6c0.6-2,1.4-4.2,2.4-6.5c1-2.3,2.2-4.9,3.7-7.7c1.6-3.1,3.5-6.1,5.7-8.9c2.2-2.8,4.5-5.3,6.8-7.4
				c2.3-2.1,7.9-5.7,11.6-6.9c0.3-0.1,17,9.8,17,10.6c0,0.4-0.1,1.2-0.4,2.5c-0.3,1.3-0.6,2.8-0.9,4.5c-0.3,1.7-0.7,3.5-0.9,5.3
				c-0.3,1.9-0.4,3.5-0.4,5.1c0,4.3,0.2,7.8,0.7,10.6c0.5,2.7,1.1,4.9,2,6.5c0.8,1.6,1.8,2.7,3,3.3c1.1,0.6,2.4,0.9,3.7,0.9
				c3.1,0,5.6-0.5,7.5-1.6c2-1,3.7-2.6,5.2-4.7c0.4-0.6,0.8-1.1,1.1-1.5c0.3-0.4,0.6-0.7,1-0.7c0.6,0,1.1,0.2,1.5,0.7
				C696.1,232.8,696.4,233.3,696.4,233.8z M662.6,206.8c0-3-0.5-5.2-1.4-6.5c-0.9-1.3-1.9-2-3.1-2c-1,0-2,0.2-3.1,0.6
				c-1,0.4-2,0.9-2.9,1.5c-0.9,0.6-1.8,1.3-2.5,2c-0.8,0.7-1.4,1.4-1.9,2.1c-1,1.3-2,2.8-3.1,4.4c-1.1,1.7-2.1,3.4-3.2,5.2
				c-1.1,1.8-2.1,3.7-3.1,5.6c-1,1.9-1.8,3.7-2.6,5.5c-0.7,1.8-1.3,3.5-1.8,5.1c-0.4,1.6-0.7,3.1-0.7,4.4c0,1.9,0.4,3.4,1.1,4.6
				c0.7,1.1,2.1,1.7,4.1,1.7c0.7,0,1.7-0.4,3-1.3c1.3-0.9,2.7-2,4.3-3.3c1.5-1.3,3-2.8,4.4-4.3c1.5-1.6,2.6-3,3.6-4.4
				c1-1.5,2-3.1,3.1-4.9c1-1.8,2-3.6,2.8-5.4c0.8-1.9,1.5-3.7,2.1-5.5C662.3,210,662.6,208.4,662.6,206.8z M655.6,190.8
				c0.4,0,20-7.8,17,10.6c-0.1,0.4-0.1,1.2-0.4,2.5"/>
			<path d="M633.5,251.9c-1.5,0-3-0.4-4.4-1.1c-1.3-0.7-2.6-1.7-3.6-3c-1-1.2-1.8-2.6-2.4-4.2c-0.6-1.6-0.9-3.2-0.9-5
				c0-1.6,0.1-3.4,0.4-5.2c0.3-1.8,0.7-3.8,1.4-5.8c0.6-2,1.5-4.2,2.5-6.6c1-2.4,2.2-5,3.7-7.8c1.6-3.2,3.6-6.3,5.9-9.2
				c2.3-2.9,4.6-5.4,6.9-7.5c2.5-2.3,8.3-5.9,12.2-7.2c0.1,0,0.2-0.1,0.2-0.1c0,0,0.1,0,0.2-0.1c9-2.9,13.5-1.3,15.8,0.6
				c2.7,2.3,3.6,6.3,2.8,11.7c0,0.4-0.1,1.1-0.5,2.7c-0.3,1.3-0.6,2.8-0.9,4.5c-0.3,1.7-0.6,3.5-0.9,5.3c-0.3,1.8-0.4,3.4-0.4,4.9
				c0,4.2,0.2,7.7,0.7,10.3c0.5,2.6,1.1,4.6,1.8,6.1c0.7,1.3,1.5,2.2,2.4,2.7c0.9,0.5,1.9,0.7,3,0.7c2.8,0,5.1-0.5,6.8-1.4
				c1.7-0.9,3.3-2.4,4.7-4.2c0.5-0.6,0.8-1.1,1.1-1.5c0.8-1.1,1.6-1.3,2.2-1.3c0.9,0,1.8,0.4,2.6,1.1c1,0.9,1.2,1.9,1.2,2.5
				c0,0.8-0.2,1.7-0.5,2.7c-0.3,1-0.8,1.9-1.4,2.9c-0.7,1.3-1.8,2.6-3,4c-1.2,1.4-2.7,2.6-4.2,3.8c-1.6,1.1-3.3,2.1-5.1,2.8
				c-1.9,0.8-3.9,1.1-5.9,1.1c-2.7,0-5.1-0.6-7-1.9c-1.9-1.2-3.6-2.8-5-4.9c-1.3-2-2.5-4.3-3.3-6.9c-0.5-1.5-1-3.2-1.4-4.8
				c-1.3,1.7-2.8,3.4-4.5,5.1c-2.5,2.6-5.1,4.9-7.7,7c-2.7,2.1-5.3,3.8-7.9,5.1C638.2,251.2,635.7,251.9,633.5,251.9z M655.6,192.4
				c-3.4,1.3-8.4,4.4-10.5,6.4c-2.2,2.1-4.5,4.5-6.6,7.2c-2.1,2.7-4,5.6-5.6,8.7c-1.4,2.7-2.6,5.3-3.6,7.6c-1,2.3-1.8,4.4-2.4,6.4
				c-0.6,1.9-1,3.7-1.3,5.4c-0.2,1.7-0.4,3.2-0.4,4.7c0,1.4,0.2,2.7,0.7,3.9c0.5,1.2,1.1,2.4,1.9,3.3c0.8,0.9,1.7,1.7,2.7,2.2
				c1,0.5,2,0.8,3,0.8c1.7,0,3.7-0.6,6-1.7c2.4-1.2,4.9-2.8,7.4-4.8c2.5-2,5-4.2,7.4-6.7c2.4-2.5,4.4-5,6.2-7.5l2-3l0.7,3.5
				c0.5,2.7,1.2,5.3,2,7.7c0.8,2.4,1.8,4.4,3,6.2c1.1,1.7,2.5,3,4.1,4c1.5,0.9,3.3,1.4,5.5,1.4c1.7,0,3.3-0.3,4.8-0.9
				c1.6-0.6,3.1-1.5,4.5-2.4c1.4-1,2.6-2.1,3.8-3.4c1.1-1.2,2-2.4,2.7-3.6c0.5-0.8,0.9-1.5,1.1-2.2c0.2-0.7,0.3-1.3,0.3-1.8
				c0,0,0-0.1-0.2-0.3c-0.1-0.1-0.2-0.2-0.3-0.2c-0.3,0.5-0.7,1-1.2,1.5c-1.6,2.2-3.6,3.9-5.7,5c-2.2,1.2-4.9,1.7-8.2,1.7
				c-1.5,0-3-0.4-4.4-1.1c-1.4-0.7-2.6-2.1-3.6-3.9c-0.9-1.7-1.6-4-2.1-6.9c-0.5-2.8-0.7-6.5-0.7-10.8c0-1.6,0.1-3.4,0.4-5.3
				c0.3-1.9,0.6-3.7,0.9-5.4c0.3-1.7,0.7-3.2,0.9-4.5c0.2-0.7,0.2-1.3,0.3-1.7C668.7,200.1,658.1,193.6,655.6,192.4z M659.6,191.2
				c0.9,0.5,2,1.2,3.4,2.1c1.4,0.8,5.7,3.4,8.4,5.3c0.1-3-0.6-5.1-2-6.4C667.5,190.5,664.1,190.2,659.6,191.2z M638.6,242.5
				c-2.6,0-4.4-0.8-5.4-2.4c-0.9-1.4-1.3-3.2-1.3-5.4c0-1.4,0.2-3,0.7-4.8c0.5-1.7,1.1-3.5,1.8-5.3c0.8-1.8,1.6-3.7,2.6-5.6
				c1-1.9,2-3.8,3.1-5.6c1.1-1.8,2.2-3.6,3.2-5.2c1.1-1.6,2.1-3.2,3.1-4.5c0.5-0.7,1.2-1.5,2-2.3c0.8-0.8,1.7-1.5,2.7-2.2
				c1-0.7,2.1-1.2,3.2-1.6c1.2-0.4,2.4-0.7,3.6-0.7c1.7,0,3.2,0.9,4.4,2.6c1.1,1.6,1.6,4,1.6,7.4c0,1.7-0.3,3.5-0.8,5.4
				c-0.5,1.9-1.3,3.8-2.1,5.7c-0.9,1.9-1.8,3.8-2.9,5.6c-1,1.8-2.1,3.5-3.1,5c-1,1.5-2.2,3-3.7,4.6c-1.5,1.6-3,3.1-4.5,4.4
				c-1.6,1.4-3,2.5-4.4,3.4C640.8,242,639.6,242.5,638.6,242.5z M658.1,199.8c-0.8,0-1.7,0.2-2.5,0.5c-0.9,0.3-1.8,0.8-2.6,1.3
				c-0.9,0.6-1.6,1.2-2.3,1.8c-0.7,0.7-1.3,1.3-1.7,1.9c-1,1.3-2,2.8-3,4.4c-1.1,1.6-2.1,3.4-3.2,5.1c-1,1.8-2.1,3.6-3,5.5
				c-1,1.9-1.8,3.7-2.5,5.4c-0.7,1.7-1.3,3.4-1.7,5c-0.4,1.5-0.6,2.8-0.6,4c0,1.6,0.3,2.9,0.9,3.8c0.4,0.7,1.4,1,2.8,1
				c0.1,0,0.6,0,2.2-1.1c1.3-0.8,2.6-1.9,4.1-3.2c1.5-1.3,2.9-2.7,4.3-4.2c1.4-1.5,2.5-2.9,3.4-4.2c1-1.5,2-3.1,3-4.8
				c1-1.7,1.9-3.5,2.7-5.3c0.8-1.8,1.5-3.6,2-5.3c0.5-1.6,0.7-3.2,0.7-4.6c0-3.4-0.6-4.9-1.1-5.7
				C659.1,199.8,658.4,199.8,658.1,199.8z"/>
		</g>
	</g>
	<g>
		<path d="M697.9,179.8c-0.2,4.5-3.8,7.8-8.4,7.6c-4.5-0.2-8-3.8-7.8-8.3c0.2-4.4,3.9-7.7,8.4-7.5
			C694.7,171.8,698,175.4,697.9,179.8z M683.7,179.2c-0.1,3.5,2.3,6.4,5.9,6.5c3.5,0.1,6.1-2.5,6.3-6c0.1-3.5-2.3-6.4-5.8-6.6
			C686.6,173,683.9,175.8,683.7,179.2z M688.4,183.5l-1.8-0.1l0.3-7.9c0.7-0.1,1.7-0.2,3-0.1c1.5,0.1,2.1,0.3,2.7,0.7
			c0.4,0.4,0.7,1,0.7,1.8c0,0.9-0.7,1.5-1.7,1.8l0,0.1c0.8,0.3,1.2,0.9,1.4,2c0.2,1.2,0.3,1.7,0.5,2l-2-0.1c-0.2-0.3-0.3-1-0.5-1.9
			c-0.1-0.9-0.6-1.3-1.6-1.3l-0.9,0L688.4,183.5z M688.6,179.1l0.9,0c1,0,1.8-0.3,1.9-1.1c0-0.7-0.5-1.2-1.6-1.3c-0.5,0-0.8,0-1,0.1
			L688.6,179.1z"/>
	</g>
</g>
<g id="RP" class="st0">
	<g class="st1">
		<g>
			<path class="st2" d="M304.4,284c-0.3-3.8-0.3-7.6-0.4-11.4c0-3.8,0.1-7.5,0.2-11.3c0.3-7.5,0.8-15,1.4-22.4
				c1.4-14.9,3.4-29.6,6-44.3c2.6-14.7,5.9-29.2,9.9-43.7c2-7.2,4.2-14.4,6.8-21.5c1.3-3.5,2.6-7.1,4.2-10.6
				c0.8-1.7,1.6-3.5,2.4-5.2c0.5-0.9,0.9-1.7,1.4-2.5c0.5-0.8,1-1.7,1.8-2.3c-0.1,0.2-0.2,0.4-0.3,0.6c-0.1,0.2-0.1,0.4-0.2,0.7
				c-0.1,0.4-0.2,0.9-0.2,1.4c-0.1,0.9-0.2,1.9-0.3,2.8c-0.2,1.9-0.3,3.7-0.4,5.6l-0.8,11.2c-0.6,7.4-1.3,14.8-2.1,22.2
				c-1.7,14.8-3.8,29.5-6.5,44.1c-2.6,14.6-5.7,29.1-9.4,43.6c-1.9,7.2-3.8,14.4-6.1,21.6C309.7,269.8,307.3,276.9,304.4,284z"/>
		</g>
		<g id="P_1_">
			<g>
				<path class="st6" d="M456,309.6c0.4-8.6,1-17.2,1.7-25.8l1-12.9l0.6-6.4c0.2-2.1,0.5-4.3,0.8-6.4c1.2-8.5,1.6-17.1,2.7-25.6
					c0.6-4.2,1.3-8.5,2.4-12.6l0.8-3.1l0.9-3.1c0.3-1,1-2,2.3-2.8c1.3-0.8,3-1.6,6-2.1l1.6,0.3c2.6,1.6,3.8,2.9,4.8,4.2
					c0.9,1.3,1.2,2.4,1.1,3.5l-0.3,3.2l-0.4,3.2c-0.6,4.2-1.4,8.4-2.4,12.6c-2.1,8.3-4.8,16.5-6.9,24.8c-0.5,2.1-1.1,4.2-1.6,6.2
					l-1.8,6.2l-3.8,12.3c-2.6,8.2-5.1,16.4-7.9,24.6L456,309.6z"/>
			</g>
			<g>
				<path class="st6" d="M435,221.8c2.8-3.7,5.8-7.2,8.9-10.6c3.1-3.4,6.4-6.7,9.7-9.9c6.7-6.4,13.9-12.3,21.7-17.6
					c3.9-2.7,8-5.2,12.3-7.4c4.3-2.3,8.8-4.2,13.7-5.8c2.5-0.8,5-1.4,7.7-1.8c2.7-0.4,5.5-0.6,8.5-0.3c3,0.2,6.1,0.9,9.1,2.3
					c3,1.3,5.8,3.3,8.1,5.6l0.2,0.3l0.2,0.3c1.6,2.1,3.2,4.4,4.4,7.1c1.2,2.7,2,5.8,2.1,9c0.1,3.2-0.6,6.4-1.6,9.2
					c-1.1,2.8-2.6,5.2-4.2,7.3c-3.3,4.2-7,7.2-10.8,9.9c-3.8,2.6-7.7,4.8-11.6,6.8c-7.9,3.8-16,6.8-24.1,9.3
					c-8.2,2.5-16.3,4.4-24.6,6.4c3.4-2.6,7-4.9,10.6-7.1c3.6-2.2,7.2-4.3,10.8-6.5c7.2-4.3,14.3-8.4,21-13c1.7-1.1,3.3-2.3,4.8-3.5
					c1.6-1.2,3.1-2.4,4.5-3.6c2.8-2.5,5.4-5.1,7.1-7.7c0.8-1.3,1.5-2.5,1.9-3.7c0.4-1.1,0.5-2.2,0.4-3.1c-0.1-1-0.3-2-0.9-3.1
					c-0.5-1.1-1.3-2.3-2.3-3.5l0.5,0.5c-1.8-1.9-4-2.9-7.1-3.3c-3.1-0.4-6.9,0.1-10.7,1c-3.9,0.9-7.8,2.3-11.8,3.9
					c-2,0.8-3.9,1.7-5.9,2.6c-2,0.9-3.9,1.9-5.9,2.9c-7.9,4-15.6,8.4-23.4,13.1C450.6,212.1,442.9,217,435,221.8z"/>
			</g>
		</g>
		<g id="R_fuera_1_">
			<path class="st2" d="M266.2,140.1c3.3-2.7,6.8-5.1,10.3-7.5c3.5-2.4,7.1-4.8,10.6-7.1c7.2-4.6,14.4-9.1,21.8-13.5
				c3.7-2.2,7.4-4.3,11.2-6.4c3.8-2,7.5-4.1,11.8-5.8c7.8-3.3,15.7-6.6,24-9.4c4.1-1.4,8.4-2.6,12.7-3.7c4.3-1,8.8-1.8,13.3-2.3
				c4.5-0.5,9.1-0.6,13.6-0.5c4.6,0.2,9.2,0.7,13.7,1.6c9.1,1.8,18,5.1,26.1,10.4c8.1,5.2,15.1,12.4,19.9,21
				c4.9,8.7,7.3,19.1,6.2,29.3c-1,10.2-5.4,20-12.1,27.5c-1.6,1.9-3.4,3.7-5.3,5.3c-1.9,1.6-3.8,3.1-5.8,4.4c-4,2.8-8.2,5-12.5,6.9
				c-8.6,3.8-17.6,6-26.5,7.3c-8.9,1.3-17.7,1.8-26.5,1.8c-8.7,0.1-17.4-0.3-25.9-0.8c-8.6-0.5-17.1-1.3-25.5-2l-12.7-1.1l-1.6-0.1
				l-1.4-0.1l-3.2-0.2c-2.3-0.2-4.8-0.4-7.5-1.3l-0.5-0.2c-2.3-0.8-3.6-3.3-2.8-5.7c0.7-2.2,3-3.4,5.2-2.9l0,0
				c7.5,1,15,2.1,22.5,3.3l2.9,0.5l2.7,0.5c1.6,0.3,3.3,0.4,5.1,0.5c3.6,0.2,7.3,0.2,11.1,0.3c7.6,0.1,15.4,0.2,23.5,1.7
				c4,0.8,8.2,1.9,12.2,3.9c2,1,4,2.3,5.9,3.9c1.8,1.6,3.5,3.5,4.8,5.7l-0.4-0.6c1.5,2,3.2,4,4.8,6.2c1.6,2.2,3.1,4.7,4.3,7.1
				c1.3,2.5,2.3,4.9,3.3,7.4c1,2.5,1.9,4.9,2.7,7.4c0.8,2.5,1.6,4.9,2.3,7.4l1.1,3.7c0.3,1.2,0.7,2.3,1.1,3.4
				c1.5,4.5,3.4,9,5.6,13.1c1.1,2,2.4,4,3.7,5.8c1.4,1.8,2.9,3.4,4.4,4.7c0.8,0.6,1.5,1.1,2.2,1.5c0.3,0.2,0.6,0.3,0.8,0.3
				c0,0,0.1,0,0.1,0c0.1,0,0,0,0,0c0,0,0,0,0,0l0.2,0l0.5,0l7.6,0c10.1,0,20.2,0.1,30.2-0.2c2.8-0.1,5.2,2.1,5.3,4.9
				c0.1,2.8-2.1,5.2-4.9,5.3c-0.1,0-0.2,0-0.3,0c-10.2-0.3-20.3-0.2-30.5-0.2l-7.6,0l-0.5,0l-0.2,0l-0.5,0c-0.3,0-0.7-0.1-0.9-0.1
				l-0.8-0.2c-1-0.3-1.9-0.6-2.7-1c-1.6-0.8-3-1.7-4.2-2.7c-2.4-1.9-4.3-4.1-6-6.3c-1.7-2.2-3.3-4.5-4.6-6.8
				c-2.8-4.7-5-9.6-6.8-14.6c-0.5-1.2-0.9-2.5-1.3-3.8l-1.2-3.6c-0.8-2.4-1.6-4.7-2.5-7c-1.7-4.6-3.5-9.1-5.7-13.2
				c-1.1-2-2.3-3.9-3.6-5.8c-1.3-1.9-2.9-3.8-4.5-5.8l0,0c-0.1-0.2-0.3-0.4-0.4-0.6c-1.3-2.2-3.3-4-6-5.3c-2.7-1.4-5.9-2.3-9.2-3
				c-6.8-1.4-14.1-1.6-21.6-1.9c-3.8-0.1-7.6-0.2-11.6-0.6c-2-0.2-4-0.4-6.2-0.8l-2.8-0.6l-2.7-0.6l-22.2-4.3l0,0l2-8.7
				c1.4,0.3,3.1,0.3,5.1,0.2l3.2-0.2c0.6,0,1.1,0,1.7-0.1l1.6,0c4.3-0.1,8.6-0.1,12.8-0.1l25.4,0.1c8.4,0,16.8-0.1,25.1-0.6
				c8.3-0.4,16.4-1.2,24.3-2.6c7.9-1.4,15.5-3.5,22.4-6.6c3.5-1.6,6.7-3.4,9.7-5.5c1.5-1,3-2.2,4.3-3.4c1.3-1.1,2.6-2.4,3.7-3.7
				c4.5-5.2,7.5-11.7,8.2-18.4c0.8-6.7-0.6-13.7-3.9-19.9c-1.7-3.1-3.7-6.1-6.1-8.8c-1.2-1.3-2.5-2.6-3.9-3.8
				c-1.4-1.2-2.8-2.4-4.3-3.4c-6.1-4.3-13.2-7.4-20.7-9.4c-3.8-1-7.6-1.7-11.5-2.1c-3.9-0.4-7.8-0.6-11.9-0.5c-4,0.1-8,0.5-12,1
				c-4,0.6-8.1,1.3-12.1,2.3c-4.1,0.9-8.1,1.9-12.2,3l-12.3,3.4c-1,0.3-1.9,0.6-2.8,0.9l-2.9,1.1c-1.9,0.8-3.8,1.6-5.8,2.5
				c-3.8,1.7-7.7,3.5-11.5,5.4c-7.6,3.7-15.2,7.6-22.7,11.5C281,131.7,273.4,135.6,266.2,140.1z"/>
		</g>
	</g>
</g>
</svg>
